# xmcd
# 
# Track frame offsets:
#     150
#     64627
#     90411
#     142853
# 
# Disc length: 2606
# 
# Revision: 1
# Processed by: cddbd v1.5.2PL0 Copyright (c) Steve Scherf et al.
# Submitted via: BonkEnc v1.0.8
# 
DISCID=270a2c04
DTITLE=Albert Mangelsdorff - Birds Of Underground
DYEAR=1972
DGENRE=Contemporary Jazz
TTITLE0=Wobbling Notes and Fluted Crackle
TTITLE1=Grive Musicienne
TTITLE2=Birds of Underground
TTITLE3=Xenobiosis
EXTD=YEAR: 1972
EXTT0=
EXTT1=
EXTT2=
EXTT3=
PLAYORDER=
